<?xml version="1.0" standalone="no"?><!DOCTYPE svg PUBLIC "-//W3C//DTD SVG 1.1//EN" "http://www.w3.org/Graphics/SVG/1.1/DTD/svg11.dtd"><svg xmlns="http://www.w3.org/2000/svg" width="800" height="400" viewBox="0 0 800 400" style="font-family: &quot;Helvetica Neue&quot;, Helvetica, Arial, sans-serif;"><g class="sankey" transform="translate(100,0)"><g class="groups"/><g class="links"><g class="link" style="opacity: 0.8;"><path d="M1,333.48484360474055 A999 999 0.08802069139308233 0 0 88.81916953515565,329.61739430447295 L511.0050163116208,292.36003554624983 A1001 1001 0.08802069139308233 0 1 599,288.4848436047405 L599,290.4848436047405 A999 999 0.08802069139308233 0 0 511.18083046484435,294.3522929050081 L88.9949836883792,331.6096516632312 A1001 1001 0.08802069139308233 0 1 1,335.48484360474055 Z" style="fill: rgb(31, 119, 180);"/><title>Noblesse → à Journalier
108m</title><text class="label" dy="0.35em" x="5" y="334.48484360474055"/></g><g class="link" style="opacity: 0.8;"><path d="M1,145.62201977907756 A902.0099999999995 902.0099999999995 0.12253237865796063 0 0 111.24906357036792,138.859015910233 L488.5064844533339,92.40001905566446 A904.0099999999995 904.0099999999995 0.12253237865796063 0 1 599,85.62201977907753 L599,87.62201977907753 A902.0099999999995 902.0099999999995 0.12253237865796063 0 0 488.75093642963213,94.3850236479221 L111.49351554666612,140.84402050249062 A904.0099999999995 904.0099999999995 0.12253237865796063 0 1 1,147.62201977907756 Z" style="fill: rgb(31, 119, 180);"/><title>Journalier → à Noblesse
186m</title><text class="label" dy="0.35em" x="5" y="146.62201977907756"/></g><g class="link" style="opacity: 0.8;"><path d="M1,202.28075017019378 A525.612857142857 525.612857142857 0.213041094908899 0 0 112.13201683675146,190.3979295520405 L487.44511673094377,109.20878589470023 A527.612857142857 527.612857142857 0.213041094908899 0 1 599,97.28075017019377 L599,99.28075017019377 A525.612857142857 525.612857142857 0.213041094908899 0 0 487.86798316324854,111.16357078834706 L112.5548832690562,192.35271444568733 A527.612857142857 527.612857142857 0.213041094908899 0 1 1,204.28075017019378 Z" style="fill: rgb(31, 119, 180);"/><title>Prof. libérale → à Noblesse
354m</title><text class="label" dy="0.35em" x="5" y="203.28075017019378"/></g><g class="link" style="opacity: 0.8;"><path d="M1,39.37918438755865 A0 0 0 0 0 1,39.37918438755865 L599,39.37918438755865 A0 0 0 0 0 599,39.37918438755865 L599,41.37918438755865 A0 0 0 0 0 599,41.37918438755865 L1,41.37918438755865 A0 0 0 0 0 1,41.37918438755865 Z" style="fill: rgb(31, 119, 180);"/><title>Artisanat → à Noblesse
379m</title><text class="label" dy="0.35em" x="5" y="40.37918438755865"/></g><g class="link" style="opacity: 0.8;"><path d="M1,260.0976582802012 A525.6128571428568 525.6128571428568 0.213041094908899 0 0 112.13201683675142,248.2148376620479 L487.4451167309438,167.0256940047076 A527.6128571428568 527.6128571428568 0.213041094908899 0 1 599,155.09765828020113 L599,157.09765828020113 A525.6128571428568 525.6128571428568 0.213041094908899 0 0 487.8679831632486,168.98047889835442 L112.55488326905616,250.16962255569473 A527.6128571428568 527.6128571428568 0.213041094908899 0 1 1,262.0976582802012 Z" style="fill: rgb(31, 119, 180);"/><title>Noblesse → à Artisanat
562m</title><text class="label" dy="0.35em" x="5" y="261.0976582802012"/></g><g class="link" style="opacity: 0.8;"><path d="M1,129.57194255136926 A999 999 0.08802069139308233 0 0 88.81916953515565,125.70449325110168 L511.0050163116208,88.4471344928786 A1001 1001 0.08802069139308233 0 1 599,84.57194255136925 L599,86.57194255136925 A999 999 0.08802069139308233 0 0 511.18083046484435,90.43939185163683 L88.9949836883792,127.6967506098599 A1001 1001 0.08802069139308233 0 1 1,131.57194255136926 Z" style="fill: rgb(31, 119, 180);"/><title>Inconnu → à Noblesse
864m</title><text class="label" dy="0.35em" x="5" y="130.57194255136926"/></g><g class="link" style="opacity: 0.8;"><path d="M1,55.75836877511731 A998.9907326750068 998.9907326750068 0.02622829997037246 0 0 27.198824564320482,55.41477376285621 L572.7482387732638,41.102658046509276 A1001.0092673249932 1001.0092673249932 0.02622829997037246 0 1 599,40.758368775117304 L599,42.77690342510377 A998.9907326750068 998.9907326750068 0.02622829997037246 0 0 572.8011754356795,43.12049843736487 L27.25176122673615,57.4326141537118 A1001.0092673249932 1001.0092673249932 0.02622829997037246 0 1 1,57.776903425103775 Z" style="fill: rgb(31, 119, 180);"/><title>Clergé → à Noblesse
1.01</title><text class="label" dy="0.35em" x="5" y="56.76763610011054"/></g><g class="link" style="opacity: 0.8;"><path d="M1,330.914617631342 A901.2790562115226 901.2790562115226 0.12253237865796063 0 0 111.15972324353989,324.15709416257 L488.4171441265059,277.69809730800137 A904.7409437884758 904.7409437884758 0.12253237865796063 0 1 599,270.91461763134197 L599,274.3765052082952 A901.2790562115226 901.2790562115226 0.12253237865796063 0 0 488.8402767564601,281.13402867706725 L111.58285587349407,327.5930255316359 A904.7409437884758 904.7409437884758 0.12253237865796063 0 1 1,334.37650520829527 Z" style="fill: rgb(31, 119, 180);"/><title>Noblesse → à Inconnu
1.73</title><text class="label" dy="0.35em" x="5" y="332.64556141981865"/></g><g class="link" style="opacity: 0.8;"><path d="M1,350.3642878580474 A997.8419247633758 997.8419247633758 0.02622829997037246 0 0 27.16869674035726,350.02108796924006 L572.7181109493006,335.7089722528931 A1002.1580752366242 1002.1580752366242 0.02622829997037246 0 1 599,335.3642878580474 L599,339.68043833129593 A997.8419247633758 997.8419247633758 0.02622829997037246 0 0 572.8313032596427,340.0236382201033 L27.281889050699373,354.33575393645026 A1002.1580752366242 1002.1580752366242 0.02622829997037246 0 1 1,354.68043833129593 Z" style="fill: rgb(31, 119, 180);"/><title>Noblesse → à Paysan
2.16</title><text class="label" dy="0.35em" x="5" y="352.5223630946717"/></g><g class="link" style="opacity: 0.8;"><path d="M1,183.40991442730717 A607.248305211711 607.248305211711 0.18307280310401475 0 0 111.5506964485216,173.26214321070333 L487.62702564790885,103.63316493359393 A611.7650281216219 611.7650281216219 0.18307280310401475 0 1 599,93.40991442730714 L599,97.9266373372179 A607.248305211711 607.248305211711 0.18307280310401475 0 0 488.4493035514784,108.07440855382173 L112.37297435209113,177.70338683093112 A611.7650281216219 611.7650281216219 0.18307280310401475 0 1 1,187.92663733721793 Z" style="fill: rgb(31, 119, 180);"/><title>Paysan → à Noblesse
2.26</title><text class="label" dy="0.35em" x="5" y="185.66827588226255"/></g><g class="link" style="opacity: 0.8;"><path d="M1,354.6804383312959 A0 0 0 0 0 1,354.6804383312959 L599,354.6804383312959 A0 0 0 0 0 599,354.6804383312959 L599,359.99999999999994 A0 0 0 0 0 599,359.99999999999994 L1,359.99999999999994 A0 0 0 0 0 1,359.99999999999994 Z" style="fill: rgb(31, 119, 180);"/><title>Noblesse → à Prof. libérale
2.66</title><text class="label" dy="0.35em" x="5" y="357.3402191656479"/></g><g class="link" style="opacity: 0.8;"><path d="M1,161.80822639796796 A723.1571559853304 723.1571559853304 0.15289222392439128 0 0 111.13484677641638,153.37240616408047 L487.8597342858614,95.32105707556711 A729.7588440146695 729.7588440146695 0.15289222392439128 0 1 599,86.80822639796794 L599,93.40991442730716 A723.1571559853304 723.1571559853304 0.15289222392439128 0 0 488.8651532235836,101.84573466119464 L112.14026571413858,159.89708374970797 A729.7588440146695 729.7588440146695 0.15289222392439128 0 1 1,168.40991442730714 Z" style="fill: rgb(31, 119, 180);"/><title>Laboureur → à Noblesse
3.30</title><text class="label" dy="0.35em" x="5" y="165.10907041263755"/></g><g class="link" style="opacity: 0.8;"><path d="M1,261.65948070771327 A604.6239356606566 604.6239356606566 0.18307280310401475 0 0 111.0729250342297,251.55556552424014 L487.14925423361694,181.92658724713075 A614.3893976726763 614.3893976726763 0.18307280310401475 0 1 599,171.65948070771324 L599,181.42494271973297 A604.6239356606566 604.6239356606566 0.18307280310401475 0 0 488.9270749657703,191.5288579032061 L112.85074576638304,261.1578361803155 A614.3893976726763 614.3893976726763 0.18307280310401475 0 1 1,271.424942719733 Z" style="fill: rgb(31, 119, 180);"/><title>Noblesse → à Clergé
4.88</title><text class="label" dy="0.35em" x="5" y="266.54221171372313"/></g><g class="link" style="opacity: 0.8;"><path d="M1,334.5931820011859 A992.1144470715692 992.1144470715692 0.05521583469437341 0 0 55.752595895117175,333.08119269502697 L543.3770317518255,306.1292065821785 A1007.8855529284308 1007.8855529284308 0.05521583469437341 0 1 599,304.5931820011858 L599,320.3642878580474 A992.1144470715692 992.1144470715692 0.05521583469437341 0 0 544.2474041048828,321.87627716420633 L56.62296824817451,348.8282632770548 A1007.8855529284308 1007.8855529284308 0.05521583469437341 0 1 1,350.3642878580475 Z" style="fill: rgb(31, 119, 180);"/><title>Noblesse → à Laboureur
7.89</title><text class="label" dy="0.35em" x="5" y="342.4787349296167"/></g><g class="link" style="opacity: 0.8;"><path d="M1,218.63486300316967 A444.0545135752401 444.0545135752401 0.24276553866024253 0 0 107.74537051496198,205.61380161020114 L482.18213897987965,112.88459142511601 A485.95548642475956 485.95548642475956 0.24276553866024253 0 1 599,98.63486300316964 L599,140.53583585268905 A444.0545135752401 444.0545135752401 0.24276553866024253 0 0 492.25462948503804,153.55689724565758 L117.81786102012033,246.2861074307427 A485.95548642475956 485.95548642475956 0.24276553866024253 0 1 1,260.5358358526891 Z" style="fill: rgb(31, 119, 180);"/><title>Noblesse → à Noblesse
21.0</title><text class="label" dy="0.35em" x="5" y="239.58534942792937"/></g><g class="link" style="opacity: 0.8;"><path d="M1,72.77690342510377 A979.0344157412762 979.0344157412762 0.05521583469437341 0 0 55.03073797657066,71.28484817751439 L542.6551738332789,44.33286206466598 A1020.9655842587238 1020.9655842587238 0.05521583469437341 0 1 599,42.77690342510377 L599,84.70807194255138 A979.0344157412762 979.0344157412762 0.05521583469437341 0 0 544.9692620234293,86.20012719014076 L57.34482616672102,113.15211330298916 A1020.9655842587238 1020.9655842587238 0.05521583469437341 0 1 1,114.70807194255138 Z" style="fill: rgb(31, 119, 180);"/><title>Commerce → à Noblesse
21.0</title><text class="label" dy="0.35em" x="5" y="93.74248768382758"/></g><g class="link" style="opacity: 0.8;"><path d="M1,271.42494271973305 A696.7131625441947 696.7131625441947 0.15289222392439172 0 0 107.10749927429902,263.29759869062224 L483.8323867837437,205.24624960210897 A756.2028374558037 756.2028374558037 0.15289222392439172 0 1 599,196.42494271973294 L599,255.91461763134197 A696.7131625441947 696.7131625441947 0.15289222392439172 0 0 492.892500725701,264.0419616604528 L116.16761321625634,322.0933107489661 A756.2028374558037 756.2028374558037 0.15289222392439172 0 1 1,330.914617631342 Z" style="fill: rgb(31, 119, 180);"/><title>Noblesse → à Commerce
29.7</title><text class="label" dy="0.35em" x="5" y="301.16978017553754"/></g></g><g class="nodes"><g class="node" transform="translate(0,161.80822639796796)"><title>Laboureur</title><line x1="0" x2="0" y1="0" y2="6.601688029339215" style="display: inline; stroke: rgb(0, 0, 0);"/><rect class="node-body" width="1" height="6.601688029339215" style="fill: none;"/><text class="node-value" dy=".35em" text-anchor="middle" style="display: none;" transform="translate(0.5,3.3008440146696074) rotate(-90)"/><text class="node-title" dy=".35em" text-anchor="end" transform="translate(-4,3.3008440146696074)" style="display: inline;">Laboureur</text><rect class="node-click-target" x="-5" y="-5" width="10" style="fill: none; visibility: hidden; pointer-events: all;" height="11.601688029339215"/></g><g class="node" transform="translate(599,270.91461763134197)"><title>à Inconnu</title><line x1="0" x2="0" y1="0" y2="3.4618875769531883" style="display: inline; stroke: rgb(0, 0, 0);"/><rect class="node-body" width="1" height="3.4618875769531883" style="fill: none;"/><text class="node-value" dy=".35em" text-anchor="middle" style="display: none;" transform="translate(0.5,1.7309437884765941) rotate(-90)"/><text class="node-title" dy=".35em" text-anchor="start" transform="translate(5,1.7309437884765941)" style="display: inline;">à Inconnu</text><rect class="node-click-target" x="-5" y="-5" width="10" style="fill: none; visibility: hidden; pointer-events: all;" height="8.461887576953188"/></g><g class="node" transform="translate(0,72.77690342510377)"><title>Commerce</title><line x1="0" x2="0" y1="0" y2="41.93116851744762" style="display: inline; stroke: rgb(0, 0, 0);"/><rect class="node-body" width="1" height="41.93116851744762" style="fill: none;"/><text class="node-value" dy=".35em" text-anchor="middle" style="display: none;" transform="translate(0.5,20.96558425872381) rotate(-90)"/><text class="node-title" dy=".35em" text-anchor="end" transform="translate(-4,20.96558425872381)" style="display: inline;">Commerce</text><rect class="node-click-target" x="-5" y="-5" width="10" style="fill: none; visibility: hidden; pointer-events: all;" height="46.93116851744762"/></g><g class="node" transform="translate(599,40)"><title>à Noblesse</title><line x1="0" x2="0" y1="0" y2="100.53583585268905" style="display: inline; stroke: rgb(0, 0, 0);"/><rect class="node-body" width="1" height="100.53583585268905" style="fill: none;"/><text class="node-value" dy=".35em" text-anchor="middle" style="display: none;" transform="translate(0.5,50.26791792634452) rotate(-90)"/><text class="node-title" dy=".35em" text-anchor="start" transform="translate(5,50.26791792634452)" style="display: inline;">à Noblesse</text><rect class="node-click-target" x="-5" y="-5" width="10" style="fill: none; visibility: hidden; pointer-events: all;" height="105.53583585268905"/></g><g class="node" transform="translate(599,289.37650520829516)"><title>à Journalier</title><line x1="0" x2="0" y1="0" y2="1" style="display: inline; stroke: rgb(0, 0, 0);"/><rect class="node-body" width="1" height="1" style="fill: none;"/><text class="node-value" dy=".35em" text-anchor="middle" style="display: none;" transform="translate(0.5,0.10833839644533327) rotate(0)"/><text class="node-title" dy=".35em" text-anchor="start" transform="translate(5,0.10833839644533327)" style="display: inline;">à Journalier</text><rect class="node-click-target" x="-5" y="-5" width="10" style="fill: none; visibility: hidden; pointer-events: all;" height="6"/></g><g class="node" transform="translate(0,129.70807194255138)"><title>Inconnu</title><line x1="0" x2="0" y1="0" y2="1.7277412176357245" style="display: inline; stroke: rgb(0, 0, 0);"/><rect class="node-body" width="1" height="1.7277412176357245" style="fill: none;"/><text class="node-value" dy=".35em" text-anchor="middle" style="display: none;" transform="translate(0.5,0.8638706088178623) rotate(-90)"/><text class="node-title" dy=".35em" text-anchor="end" transform="translate(-4,0.8638706088178623)" style="display: inline;">Inconnu</text><rect class="node-click-target" x="-5" y="-5" width="10" style="fill: none; visibility: hidden; pointer-events: all;" height="6.7277412176357245"/></g><g class="node" transform="translate(599,196.42494271973294)"><title>à Commerce</title><line x1="0" x2="0" y1="0" y2="59.48967491160903" style="display: inline; stroke: rgb(0, 0, 0);"/><rect class="node-body" width="1" height="59.48967491160903" style="fill: none;"/><text class="node-value" dy=".35em" text-anchor="middle" style="display: none;" transform="translate(0.5,29.744837455804515) rotate(-90)"/><text class="node-title" dy=".35em" text-anchor="start" transform="translate(5,29.744837455804515)" style="display: inline;">à Commerce</text><rect class="node-click-target" x="-5" y="-5" width="10" style="fill: none; visibility: hidden; pointer-events: all;" height="64.48967491160903"/></g><g class="node" transform="translate(599,155.53583585268905)"><title>à Artisanat</title><line x1="0" x2="0" y1="0" y2="1.123644855024196" style="display: inline; stroke: rgb(0, 0, 0);"/><rect class="node-body" width="1" height="1.123644855024196" style="fill: none;"/><text class="node-value" dy=".35em" text-anchor="middle" style="display: none;" transform="translate(0.5,0.561822427512098) rotate(-90)"/><text class="node-title" dy=".35em" text-anchor="start" transform="translate(5,0.561822427512098)" style="display: inline;">à Artisanat</text><rect class="node-click-target" x="-5" y="-5" width="10" style="fill: none; visibility: hidden; pointer-events: all;" height="6.123644855024196"/></g><g class="node" transform="translate(599,304.5931820011858)"><title>à Laboureur</title><line x1="0" x2="0" y1="0" y2="15.771105856861595" style="display: inline; stroke: rgb(0, 0, 0);"/><rect class="node-body" width="1" height="15.771105856861595" style="fill: none;"/><text class="node-value" dy=".35em" text-anchor="middle" style="display: none;" transform="translate(0.5,7.885552928430798) rotate(-90)"/><text class="node-title" dy=".35em" text-anchor="start" transform="translate(5,7.885552928430798)" style="display: inline;">à Laboureur</text><rect class="node-click-target" x="-5" y="-5" width="10" style="fill: none; visibility: hidden; pointer-events: all;" height="20.771105856861595"/></g><g class="node" transform="translate(599,335.3642878580474)"><title>à Paysan</title><line x1="0" x2="0" y1="0" y2="4.316150473248456" style="display: inline; stroke: rgb(0, 0, 0);"/><rect class="node-body" width="1" height="4.316150473248456" style="fill: none;"/><text class="node-value" dy=".35em" text-anchor="middle" style="display: none;" transform="translate(0.5,2.158075236624228) rotate(-90)"/><text class="node-title" dy=".35em" text-anchor="start" transform="translate(5,2.158075236624228)" style="display: inline;">à Paysan</text><rect class="node-click-target" x="-5" y="-5" width="10" style="fill: none; visibility: hidden; pointer-events: all;" height="9.316150473248456"/></g><g class="node" transform="translate(0,146.43581316018714)"><title>Journalier</title><line x1="0" x2="0" y1="0" y2="1" style="display: inline; stroke: rgb(0, 0, 0);"/><rect class="node-body" width="1" height="1" style="fill: none;"/><text class="node-value" dy=".35em" text-anchor="middle" style="display: none;" transform="translate(0.5,0.18620661889040946) rotate(0)"/><text class="node-title" dy=".35em" text-anchor="end" transform="translate(-4,0.18620661889040946)" style="display: inline;">Journalier</text><rect class="node-click-target" x="-5" y="-5" width="10" style="fill: none; visibility: hidden; pointer-events: all;" height="6"/></g><g class="node" transform="translate(0,55.75836877511731)"><title>Clergé</title><line x1="0" x2="0" y1="0" y2="2.0185346499864636" style="display: inline; stroke: rgb(0, 0, 0);"/><rect class="node-body" width="1" height="2.0185346499864636" style="fill: none;"/><text class="node-value" dy=".35em" text-anchor="middle" style="display: none;" transform="translate(0.5,1.0092673249932318) rotate(-90)"/><text class="node-title" dy=".35em" text-anchor="end" transform="translate(-4,1.0092673249932318)" style="display: inline;">Clergé</text><rect class="node-click-target" x="-5" y="-5" width="10" style="fill: none; visibility: hidden; pointer-events: all;" height="7.018534649986464"/></g><g class="node" transform="translate(599,171.65948070771324)"><title>à Clergé</title><line x1="0" x2="0" y1="0" y2="9.765462012019697" style="display: inline; stroke: rgb(0, 0, 0);"/><rect class="node-body" width="1" height="9.765462012019697" style="fill: none;"/><text class="node-value" dy=".35em" text-anchor="middle" style="display: none;" transform="translate(0.5,4.882731006009848) rotate(-90)"/><text class="node-title" dy=".35em" text-anchor="start" transform="translate(5,4.882731006009848)" style="display: inline;">à Clergé</text><rect class="node-click-target" x="-5" y="-5" width="10" style="fill: none; visibility: hidden; pointer-events: all;" height="14.765462012019697"/></g><g class="node" transform="translate(0,183.40991442730717)"><title>Paysan</title><line x1="0" x2="0" y1="0" y2="4.516722909910754" style="display: inline; stroke: rgb(0, 0, 0);"/><rect class="node-body" width="1" height="4.516722909910754" style="fill: none;"/><text class="node-value" dy=".35em" text-anchor="middle" style="display: none;" transform="translate(0.5,2.258361454955377) rotate(-90)"/><text class="node-title" dy=".35em" text-anchor="end" transform="translate(-4,2.258361454955377)" style="display: inline;">Paysan</text><rect class="node-click-target" x="-5" y="-5" width="10" style="fill: none; visibility: hidden; pointer-events: all;" height="9.516722909910754"/></g><g class="node" transform="translate(0,40)"><title>Artisanat</title><line x1="0" x2="0" y1="0" y2="1" style="display: inline; stroke: rgb(0, 0, 0);"/><rect class="node-body" width="1" height="1" style="fill: none;"/><text class="node-value" dy=".35em" text-anchor="middle" style="display: none;" transform="translate(0.5,0.37918438755865225) rotate(0)"/><text class="node-title" dy=".35em" text-anchor="end" transform="translate(-4,0.37918438755865225)" style="display: inline;">Artisanat</text><rect class="node-click-target" x="-5" y="-5" width="10" style="fill: none; visibility: hidden; pointer-events: all;" height="6"/></g><g class="node" transform="translate(0,202.92663733721793)"><title>Prof. libérale</title><line x1="0" x2="0" y1="0" y2="1" style="display: inline; stroke: rgb(0, 0, 0);"/><rect class="node-body" width="1" height="1" style="fill: none;"/><text class="node-value" dy=".35em" text-anchor="middle" style="display: none;" transform="translate(0.5,0.35411283297587204) rotate(0)"/><text class="node-title" dy=".35em" text-anchor="end" transform="translate(-4,0.35411283297587204)" style="display: inline;">Prof. libérale</text><rect class="node-click-target" x="-5" y="-5" width="10" style="fill: none; visibility: hidden; pointer-events: all;" height="6"/></g><g class="node" transform="translate(0,218.63486300316967)"><title>Noblesse</title><line x1="0" x2="0" y1="0" y2="141.36513699683033" style="display: inline; stroke: rgb(0, 0, 0);"/><rect class="node-body" width="1" height="141.36513699683033" style="fill: none;"/><text class="node-value" dy=".35em" text-anchor="middle" style="display: none;" transform="translate(0.5,70.68256849841516) rotate(-90)"/><text class="node-title" dy=".35em" text-anchor="end" transform="translate(-4,70.68256849841516)" style="display: inline;">Noblesse</text><rect class="node-click-target" x="-5" y="-5" width="10" style="fill: none; visibility: hidden; pointer-events: all;" height="146.36513699683033"/></g><g class="node" transform="translate(599,354.6804383312959)"><title>à Prof. libérale</title><line x1="0" x2="0" y1="0" y2="5.319561668704125" style="display: inline; stroke: rgb(0, 0, 0);"/><rect class="node-body" width="1" height="5.319561668704125" style="fill: none;"/><text class="node-value" dy=".35em" text-anchor="middle" style="display: none;" transform="translate(0.5,2.6597808343520626) rotate(-90)"/><text class="node-title" dy=".35em" text-anchor="start" transform="translate(5,2.6597808343520626)" style="display: inline;">à Prof. libérale</text><rect class="node-click-target" x="-5" y="-5" width="10" style="fill: none; visibility: hidden; pointer-events: all;" height="10.319561668704125"/></g></g><g class="slice-titles"/></g></svg>